<?xml version="1.0" encoding="UTF-8"?>
<svg xmlns="http://www.w3.org/2000/svg" viewBox="0 0 7932.55 1910.78">
  <defs>
    <style>
      .cls-1 {
        fill: #5865f2;
      }

      .cls-2 {
        fill: #57f287;
      }
    </style>
  </defs>
  <g id="Layer_4" data-name="Layer 4">
    <path class="cls-1" d="m5673,1238.32v-123.11h197V332.43h-197v-123.12h355.11v1029.02h-355.11Z"/>
    <path class="cls-1" d="m7520.18,1238.13v-76h121.6v-483.2h-121.6v-76h219.2v635.2h-219.2Z"/>
  </g>
  <g id="Layer_2" data-name="Layer 2">
    <g>
      <path class="cls-2" d="m689.07,1019.31V342.31h303c68.66,0,124.33,14.5,167,43.5,42.66,29,64,73.5,64,133.5,0,33.34-9.17,63.17-27.5,89.5-18.34,26.34-43.5,46.17-75.5,59.5,82,27.34,123,82,123,164,0,64-23,111.17-69,141.5-46,30.34-105.67,45.5-179,45.5h-306Zm136-399h160c30.66,0,55.66-6.5,75-19.5,19.33-13,29-33.16,29-60.5,0-53.33-35.34-80-106-80h-158v160Zm0,281h163c80.66,0,121-29,121-87,0-28-10.84-48.83-32.5-62.5-21.67-13.66-48.84-20.5-81.5-20.5h-170v170Z"/>
      <path class="cls-2" d="m1357.05,1019.31V488.31h133v78c30.66-60,76.33-90,137-90,18.66,0,34.33,4,47,12v111h-7c-10-3.33-23.34-5-40-5-42.67,0-76.17,14.17-100.5,42.5-24.34,28.34-36.5,64.84-36.5,109.5v273h-133Z"/>
      <path class="cls-2" d="m1901.05,1033.31c-51.34,0-93.67-14.66-127-44-33.34-29.33-50-68.66-50-118,0-58.66,20.16-103.33,60.5-134,40.33-30.66,92.5-46,156.5-46,50.66,0,95.33,8,134,24v-18c0-37.33-9.84-64.16-29.5-80.5-19.67-16.33-49.5-24.5-89.5-24.5-69.34,0-132,16.67-188,50h-7v-120c62-32,134.33-48,217-48s136.66,18.17,174,54.5c37.33,36.34,56,93.5,56,171.5v319h-133v-71c-16,27.34-39.84,48.34-71.5,63-31.67,14.66-65.84,22-102.5,22Zm31-106c40,0,73.83-11.33,101.5-34,27.66-22.66,41.5-52.33,41.5-89v-3c-31.34-11.33-68.67-17-112-17-32.67,0-59.5,6.17-80.5,18.5-21,12.34-31.5,32.17-31.5,59.5,0,21.34,7.5,37.5,22.5,48.5s34.5,16.5,58.5,16.5Z"/>
      <path class="cls-2" d="m2591.04,1033.31c-81.34,0-147.84-26.16-199.5-78.5-51.67-52.33-77.5-119.5-77.5-201.5s26-148.16,78-200.5c52-52.33,118.33-78.5,199-78.5,62.66,0,116.66,16,162,48v120h-8c-38-31.33-85.67-47-143-47-46.67,0-84.17,14.67-112.5,44-28.34,29.34-42.5,67.34-42.5,114s14.16,85.67,42.5,115c28.33,29.34,65.83,44,112.5,44,56,0,103.66-15.66,143-47h8v120c-45.34,32-99.34,48-162,48Z"/>
      <path class="cls-2" d="m3119.04,751.31l244,260v8h-162l-206-233v233h-133V318.31h133v401l197-231h157v7l-230,256Z"/>
      <path class="cls-2" d="m3663.03,1033.31c-84.67,0-152-25.33-202-76-50-50.66-75-118.66-75-204s24.5-149,73.5-201,113.5-78,193.5-78,137,25,179,75,63,116.34,63,199c0,16-1.34,32.67-4,50h-369c2.66,38,19.16,67.34,49.5,88,30.33,20.67,66.83,31,109.5,31,70.66,0,133.33-17.33,188-52h7v120c-59.34,32-130.34,48-213,48Zm-142-332h244c0-36-9.67-64.33-29-85-19.34-20.66-47-31-83-31-38,0-68.67,10-92,30-23.34,20-36.67,48.67-40,86Z"/>
      <path class="cls-2" d="m4190.03,1027.31c-47.34,0-84.34-12.16-111-36.5-26.67-24.33-40-59.83-40-106.5v-285h-86v-111h88l8-132h123v132h146v111h-146v254c0,20,5.16,34.17,15.5,42.5,10.33,8.34,26.5,12.5,48.5,12.5,29.33,0,54.33-2.33,75-7h7v111c-40,10-82.67,15-128,15Z"/>
      <path class="cls-2" d="m4662.03,1033.31c-84.67,0-152-25.33-202-76-50-50.66-75-118.66-75-204s24.5-149,73.5-201,113.5-78,193.5-78,137,25,179,75,63,116.34,63,199c0,16-1.34,32.67-4,50h-369c2.66,38,19.16,67.34,49.5,88,30.33,20.67,66.83,31,109.5,31,70.66,0,133.33-17.33,188-52h7v120c-59.34,32-130.34,48-213,48Zm-142-332h244c0-36-9.67-64.33-29-85-19.34-20.66-47-31-83-31-38,0-68.67,10-92,30-23.34,20-36.67,48.67-40,86Z"/>
      <path class="cls-2" d="m5221.01,1031.31c-73.34,0-131.67-26.66-175-80-43.34-53.33-65-119.33-65-198s21.66-143.66,65-197c43.33-53.33,101.66-80,175-80,34.66,0,67,7.34,97,22,30,14.67,53.33,35.67,70,63v-243h133v701h-133v-73c-16.67,27.34-40,48.34-70,63s-62.34,22-97,22Zm31-119c42.66,0,76.83-15.33,102.5-46,25.66-30.66,38.5-68.33,38.5-113s-13-82.16-39-112.5c-26-30.33-60-45.5-102-45.5s-75.5,15.17-100.5,45.5c-25,30.34-37.5,67.84-37.5,112.5s12.5,83.17,37.5,113.5c25,30.34,58.5,45.5,100.5,45.5Z"/>
    </g>
    <g>
      <path class="cls-1" d="m6551.37,1106.95v-372.35h166.65c37.76,0,68.38,7.98,91.85,23.93,23.46,15.95,35.2,40.43,35.2,73.43,0,18.34-5.04,34.74-15.12,49.23-10.09,14.49-23.93,25.39-41.53,32.72,45.1,15.04,67.65,45.1,67.65,90.2,0,35.2-12.65,61.14-37.95,77.83-25.3,16.69-58.12,25.02-98.45,25.02h-168.3Zm74.8-219.45h88c16.86,0,30.61-3.57,41.25-10.73,10.63-7.15,15.95-18.24,15.95-33.27,0-29.33-19.44-44-58.3-44h-86.9v88Zm0,154.55h89.65c44.36,0,66.55-15.95,66.55-47.85,0-15.4-5.96-26.86-17.88-34.38-11.92-7.51-26.86-11.27-44.83-11.27h-93.5v93.5Z"/>
      <path class="cls-1" d="m7166.81,1071.75c-28.24,28.6-64.9,42.9-110,42.9s-81.77-14.3-110-42.9c-28.24-28.6-42.35-65.63-42.35-111.1s14.11-81.95,42.35-110.55c28.23-28.6,64.9-42.9,110-42.9s81.76,14.3,110,42.9c28.23,28.6,42.35,65.45,42.35,110.55s-14.12,82.5-42.35,111.1Zm-167.47-48.68c14.48,16.69,33.64,25.02,57.47,25.02s42.99-8.34,57.48-25.02c14.48-16.68,21.72-37.49,21.72-62.43s-7.34-45.19-22-61.88c-14.67-16.68-33.74-25.02-57.2-25.02s-42.54,8.34-57.2,25.02c-14.67,16.69-22,37.31-22,61.88s7.24,45.74,21.72,62.43Z"/>
      <path class="cls-1" d="m7369.21,1111.35c-26.04,0-46.39-6.69-61.05-20.07-14.67-13.38-22-32.91-22-58.57v-156.75h-47.3v-61.05h48.4l4.4-72.6h67.65v72.6h80.3v61.05h-80.3v139.7c0,11,2.84,18.79,8.52,23.38,5.68,4.59,14.58,6.88,26.67,6.88,16.13,0,29.88-1.28,41.25-3.85h3.85v61.05c-22,5.5-45.47,8.25-70.4,8.25Z"/>
    </g>
  </g>
  <g id="Layer_3" data-name="Layer 3">
    <path class="cls-1" d="m137.05,1247.09V218.07h355.11v123.12h-195.7v782.78h195.7v123.11H137.05Z"/>
    <path class="cls-1" d="m6249.22,1238.13v-635.2h219.2v76h-120.8v483.2h120.8v76h-219.2Z"/>
  </g>
</svg>