<?xml version="1.0" encoding="UTF-8"?>
<svg xmlns="http://www.w3.org/2000/svg" viewBox="0 0 1782.01 1466.11">
  <defs>
    <style>
      .cls-1 {
        fill: #5865f2;
      }

      .cls-2 {
        fill: #57f287;
      }
    </style>
  </defs>
  <g id="Layer_4" data-name="Layer 4">
    <path class="cls-1" d="m1294.01,1238.32v-123.11h197V332.43h-197v-123.12h355.11v1029.02h-355.11Z"/>
  </g>
  <g id="Layer_2" data-name="Layer 2">
    <path class="cls-2" d="m1149.43,986.59l102,105v8h-146l-35-39c-55.34,36.67-119.67,55-193,55-102,0-184.5-33.33-247.5-100-63-66.66-94.5-152-94.5-256s31.5-188,94.5-254,145.5-99,247.5-99,184.5,32.84,247.5,98.5c63,65.67,94.5,150.5,94.5,254.5,0,89.34-23.34,165-70,227Zm-471-227c0,65.34,17.66,119.5,53,162.5,35.33,43,84,64.5,146,64.5,37.33,0,70.66-8.33,100-25l-171-173v-7h143l101,101c17.33-36,26-77,26-123,0-66.66-17.5-120.66-52.5-162-35-41.33-83.84-62-146.5-62s-111.5,20.67-146.5,62c-35,41.34-52.5,95.34-52.5,162Z"/>
  </g>
  <g id="Layer_3" data-name="Layer 3">
    <path class="cls-1" d="m137.05,1247.09V218.07h355.11v123.12h-195.7v782.78h195.7v123.11H137.05Z"/>
  </g>
</svg>