<?xml version="1.0" encoding="UTF-8"?>
<svg id="Layer_1" data-name="Layer 1" xmlns="http://www.w3.org/2000/svg" viewBox="0 0 14173.23 14173.23">
  <defs>
    <style>
      .cls-1 {
        fill: #5865f2;
      }

      .cls-2 {
        fill: #57f287;
      }

      .cls-3 {
        fill: #23272a;
      }
    </style>
  </defs>
  <rect class="cls-3" y="0" width="14173.23" height="14173.23"/>
  <g>
    <g id="Layer_4" data-name="Layer 4">
      <path class="cls-1" d="m9177.93,9747.51v-642.17h1027.59v-4083.15h-1027.59v-642.22h1852.33v5367.59h-1852.33v-.05Z"/>
    </g>
    <g id="Layer_2" data-name="Layer 2">
      <path class="cls-2" d="m8423.77,8434.43l532.05,547.7v41.73h-761.57l-182.57-203.43c-288.67,191.28-624.22,286.89-1006.73,286.89-532.05,0-962.39-173.86-1291.01-521.62-328.62-347.71-492.93-792.86-492.93-1335.35s164.31-980.65,492.93-1324.92c328.62-344.27,758.96-516.41,1291.01-516.41s962.39,171.3,1291.01,513.8c328.62,342.55,492.93,785.04,492.93,1327.53,0,466.02-121.75,860.68-365.14,1184.08h0Zm-2456.84-1184.08c0,340.83,92.12,623.34,276.46,847.64,184.29,224.3,438.16,336.45,761.57,336.45,194.72,0,368.58-43.45,521.62-130.41l-891.97-902.41v-36.51h745.92l526.84,526.84c90.4-187.78,135.62-401.65,135.62-641.59,0-347.71-91.28-629.39-273.85-845.03-182.57-215.59-437.33-323.41-764.18-323.41s-581.61,107.82-764.18,323.41c-182.57,215.64-273.85,497.31-273.85,845.03Z"/>
    </g>
    <g id="Layer_3" data-name="Layer 3">
      <path class="cls-1" d="m3142.97,9793.26v-5367.59h1852.33v642.22h-1020.81v4083.15h1020.81v642.17h-1852.33v.05Z"/>
    </g>
  </g>
</svg>