<?xml version="1.0" encoding="UTF-8"?>
<svg id="Layer_1" data-name="Layer 1" xmlns="http://www.w3.org/2000/svg" viewBox="0 0 512 512">
  <defs>
    <style>
      .cls-1 {
        fill: #5865f2;
      }

      .cls-2 {
        fill: #57f287;
      }

      .cls-3 {
        fill: #23272a;
      }
    </style>
  </defs>
  <rect class="cls-3" width="512" height="512"/>
  <g>
    <g id="Layer_4" data-name="Layer 4">
      <path class="cls-1" d="m330.4,350.66v-22.85h36.56v-145.26h-36.56v-22.85h65.9v190.95h-65.9Z"/>
    </g>
    <g id="Layer_2" data-name="Layer 2">
      <path class="cls-2" d="m303.57,303.95l18.93,19.48v1.48h-27.09l-6.49-7.24c-10.27,6.8-22.21,10.21-35.81,10.21-18.93,0-34.24-6.18-45.93-18.56-11.69-12.37-17.54-28.21-17.54-47.51s5.85-34.89,17.54-47.13,27-18.37,45.93-18.37,34.24,6.09,45.93,18.28c11.69,12.19,17.54,27.93,17.54,47.23,0,16.58-4.33,30.62-12.99,42.12h0Zm-87.4-42.12c0,12.12,3.28,22.18,9.84,30.15,6.56,7.98,15.59,11.97,27.09,11.97,6.93,0,13.11-1.55,18.56-4.64l-31.73-32.1v-1.3h26.54l18.74,18.74c3.22-6.68,4.82-14.29,4.82-22.82,0-12.37-3.25-22.39-9.74-30.06-6.49-7.67-15.56-11.51-27.19-11.51s-20.69,3.84-27.19,11.51c-6.49,7.67-9.74,17.69-9.74,30.06Z"/>
    </g>
    <g id="Layer_3" data-name="Layer 3">
      <path class="cls-1" d="m115.7,352.29v-190.95h65.9v22.85h-36.32v145.26h36.32v22.85h-65.9Z"/>
    </g>
  </g>
</svg>