<?xml version="1.0" encoding="UTF-8"?>
<svg xmlns="http://www.w3.org/2000/svg" viewBox="0 0 3248.82 1457.35">
  <defs>
    <style>
      .cls-1 {
        fill: #005aff;
      }
    </style>
  </defs>
  <g id="Layer_4" data-name="Layer 4">
    <path class="cls-1" d="m2760.81,1238.32v-123.11h197V332.43h-197v-123.12h355.11v1029.02h-355.11Z"/>
  </g>
  <g id="Layer_2" data-name="Layer 2">
    <g>
      <path class="cls-1" d="m839.61,1010.55l-245-670v-7h151l180,534,180-534h150v7l-245,670h-171Z"/>
      <path class="cls-1" d="m1320.61,1010.55V479.55h133v78c30.66-60,76.33-90,137-90,18.66,0,34.33,4,47,12v111h-7c-10-3.33-23.34-5-40-5-42.67,0-76.17,14.17-100.5,42.5-24.34,28.34-36.5,64.84-36.5,109.5v273h-133Z"/>
      <path class="cls-1" d="m1781.58,1010.55v-420h-77v-111h77v-22c0-53.33,15.83-94.33,47.5-123,31.66-28.66,75.16-43,130.5-43,41.33,0,77.66,6,109,18v101h-8c-21.34-8-46.67-12-76-12-24.67,0-42.5,5.17-53.5,15.5-11,10.34-16.5,27.5-16.5,51.5v14h154v111h-154v420h-133Z"/>
      <path class="cls-1" d="m2559.58,479.55h147v7l-226,531c-44,104.66-108.34,157-193,157-32,0-61-2.34-87-7v-107h8c9.33,1.33,25.33,2,48,2,41.33,0,69.66-19,85-57l17-41-231-478v-7h147l148,338,137-338Z"/>
    </g>
  </g>
  <g id="Layer_3" data-name="Layer 3">
    <path class="cls-1" d="m137.05,1238.32V209.31h355.11v123.12h-195.7v782.78h195.7v123.11H137.05Z"/>
  </g>
</svg>