<?xml version="1.0" encoding="UTF-8"?>
<svg id="Layer_1" data-name="Layer 1" xmlns="http://www.w3.org/2000/svg" viewBox="0 0 6635.52 2824.32">
  <defs>
    <style>
      .cls-1 {
        fill: #fecb4d;
      }

      .cls-1, .cls-2, .cls-3, .cls-4 {
        stroke-width: 0px;
      }

      .cls-2 {
        fill: #4655c6;
      }

      .cls-3 {
        fill: #515ce8;
      }

      .cls-4 {
        fill: #23272a;
      }
    </style>
  </defs>
  <rect class="cls-4" width="6635.52" height="2824.32"/>
  <path class="cls-2" d="m4277.67,1734.46c-2.11,4.62-1.04,9.65-1.74,14.46-3.6,25.08-11.92,48.35-25.16,69.9-8.25,13.43-18.03,25.68-29.53,36.41-19.12,17.83-38.59,35.28-57.83,52.97-18.04,16.59-35.96,33.3-53.97,49.92-8.5,7.85-17.03,15.66-25.61,23.43-20.2,18.3-43.57,30.12-70.63,34.33-10.21,1.59-20.53.84-30.78,1.32-10.34-.49-20.67-1.77-30.52-4.76-13.77-4.17-27.85-5.83-42.03-7.34-8.99-.96-17.96-2.09-26.93-3.22-12.22-1.54-24.43-3.21-36.66-4.72-9.46-1.17-18.95-2.14-28.41-3.31-12.06-1.5-24.1-3.19-36.16-4.68-9.31-1.15-18.65-2.02-27.95-3.2-11.6-1.46-23.17-3.19-34.77-4.66-12.14-1.53-24.32-2.83-36.46-4.34-11.97-1.49-23.92-3.18-35.9-4.65-12.31-1.51-24.65-2.81-36.96-4.31-15.1-1.84-30.18-3.83-45.28-5.7-17.23-2.13-34.47-4.16-51.7-6.3-14.93-1.85-29.85-3.84-44.78-5.68-15.26-1.88-30.54-3.65-45.81-5.49-11.96-1.44-23.92-2.91-35.88-4.36-14.29-1.3-28.58-2.5-42.86-4.02-21.52-2.3-42.65-6.03-62.74-14.24-19.33-7.9-35.57-19.73-44.79-39.14-7.81-16.44-9.04-33.89-6.54-51.74,2.83-20.14,11.66-36.34,29.53-47.2,17.67-10.74,37.25-13.71,57.26-14.57,14.24-.62,28.55-.5,42.78.98,7.53.78,15.06,1.65,22.58,2.59,10.59,1.32,21.18,2.75,31.76,4.13,10.11,1.72,20.22,3.47,30.33,5.16,22.85,3.82,45.71,7.58,68.56,11.41,22.84,3.82,45.66,7.72,68.5,11.53,23.17,3.86,46.36,7.64,69.54,11.48,23.17,3.84,46.35,7.64,69.5,11.6,13.17,2.25,26.35,4.44,39.62,6.07,9.58,1.18,19.07,2.88,28.52,4.85,2.34.49,5.22,1.11,3.73-3.59-1.17-3.68-1.27-7.79-1.35-11.72-.36-17.34-.09-34.57,4.85-51.48,5.61-19.19,14.08-36.67,27.86-51.36,7.57-8.07,15.68-15.58,23.83-23.05,18.37-16.82,36.58-33.82,54.89-50.7,19.9-18.34,39.83-36.65,59.79-54.91,9.89-9.05,19.85-17.99,31.14-25.38,24.89-16.3,52.01-25.96,81.68-28.75,17.99-1.69,35.72-.75,53.43,2.78,13.49,2.69,26.29,7.34,39,12.39.37.31.69.72,1.11.92,22.05,10.33,40.9,24.76,57.45,42.68,15.22,16.47,28.33,34.14,37.31,54.74,6.57,15.09,10.84,30.79,13.41,47.08.76,4.82-.49,9.87,1.76,14.46v20.99Z"/>
  <path class="cls-3" d="m3912.89,452.28c5.03,2.04,10.5,1.68,15.73,2.92,23.66,5.61,42.95,17.81,58.42,36.53,11.63,14.07,19.07,30.09,22.24,47.84,3.76,21.06,1.63,41.76-6.97,61.56-5.25,12.09-12.46,22.99-21.61,32.36-14.64,14.97-32.48,25-52.9,29.32-25.12,5.32-49.66,2.7-72.52-9.68-30.05-16.27-48.77-41.12-55.23-74.88-5.85-30.57,1.17-58.46,19.28-83.2,16-21.86,38.14-35,64.69-40.77,3.96-.86,8.2.18,11.89-2h16.99Z"/>
  <path class="cls-3" d="m4277.67,879.01c-7.31,8.87-14.7,17.68-21.9,26.64-12.69,15.79-25.26,31.67-37.88,47.51-15.5,19.45-30.97,38.92-46.51,58.34-14,17.49-28.1,34.91-42.13,52.39-10.83,13.48-21.61,27-32.41,40.51-10.44,12.82-20.88,25.64-31.74,38.96,3.95-28.14,7.8-55.56,11.66-82.99,1.94-13.34,3.91-26.67,5.82-40.01,1.79-12.54,3.5-25.1,5.3-37.64,2.22-15.46,4.51-30.91,6.73-46.38,1.79-12.54,3.48-25.1,5.27-37.64,2.22-15.46,4.55-30.91,6.74-46.37,1.82-12.87,3.46-25.76,5.28-38.63,1.93-13.65,3.98-27.27,6.05-41.41,16.65,11.1,32.94,21.98,49.24,32.84,35.93,23.95,71.87,47.9,107.8,71.86.84.56,1.57,1.25,2.68,1.02v1Z"/>
  <path class="cls-3" d="m4076.75,1060.37c-3.85,27.42-7.7,54.85-11.66,82.99,10.85-13.32,21.29-26.14,31.74-38.96,5.82,14.78,11.81,29.5,17.43,44.36,10.27,27.11,18.94,54.75,26.44,82.74,8.27,30.89,14.87,62.15,19.72,93.74,3.24,21.12,5.56,42.36,7.45,63.66,3.28,37,3.49,74.03,2.51,111.09-.47,17.9-1.6,35.8-3.75,53.6-12.71-5.05-25.51-9.7-39-12.39-17.7-3.53-35.43-4.47-53.43-2.78-29.67,2.79-56.78,12.45-81.68,28.75-11.29,7.39-21.24,16.33-31.14,25.38-19.97,18.26-39.89,36.58-59.79,54.91-18.32,16.88-36.52,33.88-54.89,50.7-8.16,7.47-16.26,14.98-23.83,23.05-13.79,14.69-22.25,32.17-27.86,51.36-4.94,16.92-5.21,34.15-4.85,51.48.08,3.93.18,8.04,1.35,11.72,1.49,4.7-1.39,4.07-3.73,3.59-9.45-1.97-18.95-3.68-28.52-4.85-13.27-1.63-26.45-3.82-39.62-6.07-23.15-3.96-46.33-7.76-69.5-11.6-23.18-3.84-46.36-7.61-69.54-11.48-22.84-3.81-45.67-7.71-68.5-11.53-22.85-3.82-45.71-7.59-68.56-11.41-10.12-1.69-20.22-3.44-30.33-5.16-8.95-21.29-21.93-39.6-40.4-53.66-20.09-15.29-43-21.54-67.82-17.8-27.92,4.21-49.18,20.12-65.54,42.41-19.06,25.97-27,55.87-28,87.69-.32,10.2.95,20.4,2.77,30.51,5.88,32.72,19.39,61.27,45.49,82.77,19.97,16.45,42.67,24.57,68.89,21.3,22.98-2.86,41.8-13.5,57.64-30,11.96,1.45,23.92,2.92,35.88,4.36,15.27,1.84,30.55,3.6,45.81,5.49,14.93,1.84,29.85,3.83,44.78,5.68,17.23,2.14,34.47,4.17,51.7,6.3,15.1,1.87,30.18,3.85,45.28,5.7,12.31,1.5,24.65,2.8,36.96,4.31,11.98,1.47,23.92,3.17,35.9,4.65,12.15,1.51,24.32,2.81,36.46,4.34,11.6,1.46,23.17,3.19,34.77,4.66,9.3,1.17,18.64,2.05,27.95,3.2,12.06,1.49,24.1,3.17,36.16,4.68,9.46,1.18,18.95,2.14,28.41,3.31,12.23,1.52,24.43,3.18,36.66,4.72,8.97,1.13,17.94,2.27,26.93,3.22,14.18,1.51,28.26,3.17,42.03,7.34,9.85,2.99,20.17,4.27,30.52,4.76-3.41,7.28-9.19,12.84-14.12,18.95-22.8,28.22-47.22,55.01-73.38,80.15-31.06,29.85-63.97,57.5-98.88,82.8-42.18,30.56-86.61,57.31-133.38,80.19-50.16,24.55-102.16,44.22-156.01,59.08-34.35,9.48-69.1,16.96-104.28,22.4-21.62,3.34-43.39,5.65-65.23,7.35-32.19,2.51-64.4,3.61-96.65,2.58-18.91-.6-37.79-1.74-56.67-3.36-26.62-2.29-53.04-5.86-79.31-10.46-27.22-4.76-54.17-10.94-80.81-18.37-38.02-10.6-75.26-23.45-111.61-38.82-34.74-14.69-68.37-31.6-101.04-50.45-32.55-18.79-63.73-39.63-93.64-62.36-22.49-17.09-44.16-35.19-64.94-54.35-23.38-21.56-45.74-44.12-66.8-67.94-13.2-14.93-26.11-30.13-37.95-46.19,4.29-2.32,9.12-1.34,13.63-1.91,17.35-2.17,34.79-3.79,52.23-5.06,5.13-.37,3.73-2.46,2.62-5.14-5.1-12.2-10.24-24.38-15.32-36.58-11.57-27.79-23.11-55.6-34.68-83.4-9.09-21.84-18.21-43.66-27.29-65.5-11.43-27.47-22.82-54.96-34.25-82.43-3.54-8.5-7.16-16.96-11.11-26.3-.55,1.48-.76,2.01-.95,2.55-10.95,31.19-21.81,62.42-32.9,93.56-4.92,13.81-8.84,27.99-15.01,41.35-9.95-19.49-18.04-39.78-25.94-60.15-19.09-49.2-33.4-99.79-43.44-151.58-4.5-23.24-8.01-46.65-10.59-70.21-2.49-22.78-4.16-45.58-5.09-68.48-.81-19.95-1.07-39.89-.41-59.82.83-25.19,2.63-50.32,5.3-75.43,4.9-46.07,14.09-91.27,25.51-136.08.23.6.63,1.19.66,1.81,1.4,23.17,2.81,46.34,4.14,69.51,1.07,18.7,1.87,37.42,3.12,56.11.88,13.13,3.62,16.6,14.85,18.85,10.08,2.02,19.74-1.06,29.21-3.95,26.48-8.07,50.65-21.22,74.71-34.55.76-.32,1.57-.55,2.28-.96,30.18-17.52,59.74-36.02,88.42-55.92,18.74-13.01,37.39-26.12,55.63-39.8,20.48-15.37,40.92-30.81,61.21-46.43,12.96-9.98,25.63-20.33,38.43-30.52,16.02-13.17,32.13-26.23,48.04-39.54,21.25-17.79,42.52-35.57,63.43-53.75,19.81-17.21,39.13-34.98,58.75-52.42,27.08-24.08,53.4-48.98,79.56-74.05,19.45-18.65,38.31-37.92,57.4-56.94,21.68-21.6,42.74-43.8,63.44-66.35,17.86-19.46,35.36-39.22,52.38-59.42,24.92-29.58,48.94-59.85,69.32-92.79,9.85-15.92,19.62-32.11,22.83-50.96,2.13-12.51-.64-21.51-15.43-23.68-11.43-1.68-22.72-4.23-34.08-6.34-17.38-3.22-34.77-6.34-52.14-9.61-13.27-2.5-26.52-5.15-39.77-7.74,9.19-2.3,18.63-2.93,27.99-3.95,34.69-3.76,69.48-5.53,104.39-5.38,25.76.11,51.48,1.03,77.13,3.32,49.23,4.4,97.83,12.7,145.7,24.99,24.85,6.38,49.4,13.87,73.59,22.5,2.15.77,4.31,1.81,6.74,1.51-.61,2.05-1.31,4.08-1.83,6.15-10.12,40.43-20.22,80.87-30.33,121.3-2.74,10.94-5.49,21.88-8.33,33.19,69.9-17.43,139.09-34.7,208.29-51.9,4.16-1.03,4.26-2.21,1.31-5.12-14.36-14.17-28.58-28.48-42.81-42.78-1.22-1.23-3.11-2.05-3.12-4.21,7.76,2.63,14.48,7.28,21.49,11.31,47.61,27.39,92.36,58.87,134.21,94.43,34.01,28.89,65.7,60.12,95.18,93.66,39.7,45.18,74.48,93.83,104.6,145.83,8.15,14.07,15.96,28.34,23.21,42.91.75,1.51.88,3.6,2.95,4.24Zm-880.27,343.93c.39-23.44-15.63-44.96-38.04-51.1-27.16-7.44-54.97-11.12-83.04-12.33-12.24-.53-24.54-.41-36.85.52-14.35,1.09-28.56,2.71-42.75,5.12-29.89,5.07-58.55,14.1-86.08,26.55-38.06,17.22-72.85,39.71-103.72,67.87-22.08,20.15-42.35,42.02-58.63,67.34-8.05,12.52-11.11,26.01-8.55,40.51,3.77,21.26,20.81,38.49,43.25,42.36,19.75,3.41,40.4-3.76,53.12-22.43,13.22-19.4,29.01-36.53,46.66-52.03,24.55-21.55,51.65-38.87,81.98-51.1,24.66-9.94,50.25-15.98,76.74-17.74,10.65-.71,21.32-1.22,32.12-.44,15.52,1.13,30.85,2.97,46.12,5.91,10.25,1.97,20.24,5.05,31.18,3.63,26.12-3.39,46.7-26.12,46.48-52.65Zm661.62-92.21c.09-18.28-5.31-31.09-15.95-41.53-9.58-9.41-21.76-14.91-33.55-20.76-26.8-13.29-54.97-22.81-84.15-29.46-31.8-7.25-63.94-10.31-96.57-9.82-21.43.33-42.63,2.38-63.56,6.46-31.49,6.14-61.73,16.34-90.58,30.46-27.1,13.27-52.06,29.81-75.7,48.58-24.3,19.3-29.43,50.96-10.81,75.66,18.06,23.96,51.53,27.78,74.57,9.69,21.4-16.8,43.77-31.71,68.71-42.86,27.41-12.25,56.04-19.48,85.85-21.51,21.47-1.46,43.05-.9,64.31,2.99,32.25,5.89,63.29,15.48,92.06,31.64,5.15,2.89,10.26,5.84,16.02,7.68,33.98,10.89,69.62-14.36,69.35-47.23Z"/>
  <path class="cls-3" d="m3136.39,568.35c13.26,2.58,26.5,5.24,39.77,7.74,17.37,3.27,34.77,6.38,52.14,9.61,11.36,2.11,22.66,4.66,34.08,6.34,14.79,2.17,17.56,11.17,15.43,23.68-3.21,18.84-12.98,35.04-22.83,50.96-20.38,32.94-44.4,63.2-69.32,92.79-17.02,20.2-34.52,39.96-52.38,59.42-20.7,22.55-41.76,44.75-63.44,66.35-19.09,19.02-37.94,38.3-57.4,56.94-26.15,25.07-52.48,49.97-79.56,74.05-19.61,17.44-38.94,35.21-58.75,52.42-20.92,18.18-42.18,35.96-63.43,53.75-15.9,13.31-32.02,26.37-48.04,39.54-.49-.65-1.08-1.25-1.46-1.96-10.82-20.57-21.73-41.1-32.4-61.76-10.21-19.77-20.2-39.65-30.24-59.5-28.04-55.43-55.44-111.18-83.67-166.51-25.88-50.73-51.61-101.53-78.03-151.98-11.63-22.2-23.35-44.36-35.21-66.44-14.59-27.18-29.52-54.17-44.97-80.87-17.1-29.55-34.44-58.96-55.25-86.09-6.47-8.44-12.76-17.64-24.12-20.61,2.83-5.62,8.51-5.25,13.35-5.83,21.74-2.62,43.37.2,65.04,1.7,15.21,1.05,30.34,2.71,45.48,4.32,19.87,2.11,39.67,4.98,59.48,7.61,17.85,2.36,35.7,4.73,53.52,7.28,19.42,2.79,38.82,5.78,58.22,8.7,15.99,2.41,31.98,4.76,47.95,7.28,15.78,2.49,31.52,5.21,47.29,7.75,19.38,3.12,38.79,6.03,58.15,9.26,22.58,3.77,45.1,7.85,67.66,11.7,22.25,3.8,44.54,7.44,66.79,11.26,19.8,3.4,39.57,6.96,59.35,10.47,23.51,4.16,47.02,8.31,70.52,12.52,13.46,2.41,26.9,4.97,40.35,7.42,1.95.35,3.94.47,5.91.7Z"/>
  <path class="cls-2" d="m2377.32,466.21c11.36,2.97,17.65,12.17,24.12,20.61,20.81,27.13,38.15,56.54,55.25,86.09,15.45,26.7,30.37,53.69,44.97,80.87,11.86,22.08,23.58,44.24,35.21,66.44,26.43,50.45,52.15,101.26,78.03,151.98,28.23,55.33,55.63,111.08,83.67,166.51,10.04,19.85,20.03,39.74,30.24,59.5,10.67,20.65,21.58,41.18,32.4,61.76.37.71.97,1.31,1.46,1.96-12.8,10.19-25.47,20.54-38.43,30.52-20.29,15.62-40.72,31.06-61.21,46.43-18.24,13.68-36.9,26.8-55.63,39.8-28.68,19.91-58.24,38.4-88.42,55.92-.71.41-1.52.65-2.28.96-3.37-13.98-6.85-27.94-10.1-41.95-11.57-49.88-21.19-100.16-29.97-150.6-5.83-33.49-12.05-66.91-17.67-100.44-5.7-34.01-10.85-68.12-16.26-102.18-3.7-23.3-7.55-46.58-11.13-69.9-3.43-22.34-6.56-44.73-9.88-67.09-3.93-26.44-7.97-52.86-11.87-79.3-2.17-14.69-4.12-29.42-6.19-44.13-2.26-16.01-4.56-32.01-6.81-48.02-1.79-12.75-3.53-25.5-5.3-38.25-2.22-16.01-4.51-32.02-6.67-48.04-1.52-11.29-2.81-22.61-4.34-33.89-1.84-13.58-4.2-27.1-4.75-40.82-.35-1.86.51-3.33,1.54-4.75Z"/>
  <path class="cls-3" d="m2375.78,470.96c.55,13.73,2.91,27.24,4.75,40.82,1.53,11.29,2.81,22.6,4.34,33.89,2.16,16.02,4.45,32.03,6.67,48.04,1.77,12.75,3.51,25.51,5.3,38.25,2.25,16.01,4.55,32.01,6.81,48.02,2.07,14.71,4.03,29.43,6.19,44.13,3.9,26.44,7.94,52.86,11.87,79.3,3.32,22.36,6.45,44.75,9.88,67.09,3.58,23.32,7.43,46.6,11.13,69.9,5.41,34.06,10.56,68.17,16.26,102.18,5.61,33.53,11.84,66.95,17.67,100.44,8.78,50.44,18.4,100.71,29.97,150.6,3.25,14.01,6.73,27.97,10.1,41.95-24.06,13.34-48.23,26.48-74.71,34.55-9.47,2.89-19.14,5.98-29.21,3.95-11.23-2.25-13.97-5.72-14.85-18.85-1.26-18.69-2.05-37.41-3.12-56.11-1.33-23.17-2.73-46.34-4.14-69.51-.04-.61-.44-1.21-.66-1.81.31-12.43-.85-24.81-1.68-37.18-.5-7.44-.67-14.9-1.29-22.35-1.3-15.88-1.37-31.86-2.36-47.77-1.65-26.51-2.85-53.05-4.11-79.58-.97-20.4-2.05-40.79-2.93-61.2-1.01-23.23-2.32-46.44-3.05-69.69-.49-15.6-1.09-31.21-1.86-46.8-1.49-30.04-2.25-60.11-3.2-90.17-.85-26.92-1.21-53.85-2.02-80.77-1.13-37.78-.45-75.56-.67-113.33-.13-21.62,1.03-43.21,2.23-64.77.71-12.83,1.99-25.7,4.81-38.31.39-1.72.59-3.55,1.91-4.92Z"/>
  <path class="cls-2" d="m2444.68,1849.54c6.17-13.36,10.09-27.54,15.01-41.35,11.1-31.14,21.95-62.37,32.9-93.56.19-.54.4-1.07.95-2.55,3.95,9.35,7.57,17.81,11.11,26.3,11.43,27.47,22.82,54.96,34.25,82.43,9.08,21.84,18.21,43.67,27.29,65.5,11.57,27.8,23.11,55.6,34.68,83.4,5.08,12.21,10.22,24.39,15.32,36.58,1.12,2.68,2.52,4.77-2.62,5.14-17.45,1.27-34.88,2.89-52.23,5.06-4.52.57-9.35-.41-13.63,1.91-10.32-.48-20.47,1.54-30.7,2.27-12.03.86-24.02,2.38-36.03,3.58-16.13,1.61-32.26,3.21-48.4,4.76-11.53,1.11-23.06,2.16-34.59,3.23-3.62.34-7.24.82-10.87.97-6.07.25-6.1.15-4.19-5.36,5.98-17.27,11.96-34.55,17.98-51.81,9.3-26.61,18.64-53.2,27.96-79.8,5.12-14.62,10.2-29.25,15.38-43.84.35-.99.49-1.89.43-2.88Z"/>
  <path class="cls-2" d="m3695.1,667.98c0,2.16,1.89,2.98,3.12,4.21,14.23,14.3,28.45,28.61,42.81,42.78,2.95,2.92,2.85,4.09-1.31,5.12-69.2,17.19-138.39,34.46-208.29,51.9,2.84-11.31,5.59-22.24,8.33-33.19,10.11-40.44,20.21-80.87,30.33-121.3.52-2.07,1.21-4.1,1.83-6.15,4.05-16.48,8.14-32.96,12.12-49.46.48-2.01,1.17-2.2,2.57-.95.99.89,1.91,1.85,2.85,2.79,32.44,32.44,64.87,64.88,97.32,97.3,1.75,1.75,3.63,3.36,5.45,5.03.37,1.51,1.42,2.05,2.87,2.03v-.11Z"/>
  <path class="cls-3" d="m2492.16,2158.21c43.33-.87,79.83,35.98,79.67,79.36-.17,45.35-36.1,80.52-80.13,80.07-45.22-.47-79.57-34.87-79.46-80.76.1-43.13,35.58-79.27,79.92-78.68Z"/>
  <path class="cls-1" d="m3695.11,668.09c-1.45.02-2.5-.52-2.87-2.03,1.4.05,2.36.72,2.87,2.03Z"/>
  <path class="cls-4" d="m3386.22,1940.49c-15.83,16.49-34.66,27.14-57.64,30-26.22,3.27-48.92-4.85-68.89-21.3-26.1-21.5-39.61-50.05-45.49-82.77-1.82-10.11-3.09-20.3-2.77-30.51,1-31.83,8.94-61.72,28-87.69,16.36-22.29,37.62-38.2,65.54-42.41,24.82-3.74,47.73,2.5,67.82,17.8,18.47,14.06,31.45,32.37,40.4,53.66-10.59-1.38-21.17-2.81-31.76-4.13-7.52-.94-15.04-1.81-22.58-2.59-14.23-1.47-28.54-1.59-42.78-.98-20.01.87-39.59,3.84-57.26,14.57-17.87,10.86-26.7,27.06-29.53,47.2-2.51,17.85-1.27,35.31,6.54,51.74,9.22,19.41,25.46,31.24,44.79,39.14,20.09,8.21,41.23,11.95,62.74,14.24,14.27,1.52,28.57,2.72,42.86,4.02Z"/>
  <path class="cls-4" d="m3196.48,1404.29c.22,26.52-20.35,49.26-46.48,52.65-10.94,1.42-20.93-1.66-31.18-3.63-15.27-2.94-30.6-4.77-46.12-5.91-10.8-.79-21.47-.27-32.12.44-26.49,1.76-52.08,7.8-76.74,17.74-30.34,12.23-57.43,29.55-81.98,51.1-17.66,15.5-33.45,32.63-46.66,52.03-12.72,18.67-33.37,25.85-53.12,22.43-22.44-3.88-39.48-21.1-43.25-42.36-2.57-14.5.5-28,8.55-40.51,16.28-25.32,36.55-47.2,58.63-67.34,30.86-28.16,65.65-50.65,103.72-67.87,27.54-12.46,56.2-21.48,86.08-26.55,14.19-2.41,28.4-4.03,42.75-5.12,12.31-.93,24.61-1.05,36.85-.52,28.07,1.2,55.88,4.89,83.04,12.33,22.4,6.14,38.42,27.66,38.04,51.1Z"/>
  <path class="cls-4" d="m3858.1,1312.08c.26,32.87-35.37,58.11-69.35,47.23-5.76-1.85-10.87-4.79-16.02-7.68-28.77-16.16-59.81-25.75-92.06-31.64-21.26-3.88-42.84-4.44-64.31-2.99-29.8,2.02-58.43,9.25-85.85,21.51-24.93,11.14-47.31,26.05-68.71,42.86-23.04,18.09-56.51,14.27-74.57-9.69-18.62-24.7-13.49-56.36,10.81-75.66,23.64-18.77,48.6-35.31,75.7-48.58,28.85-14.13,59.1-24.32,90.58-30.46,20.93-4.08,42.13-6.14,63.56-6.46,32.62-.5,64.77,2.57,96.57,9.82,29.17,6.65,57.35,16.17,84.15,29.46,11.79,5.85,23.97,11.35,33.55,20.76,10.63,10.45,16.04,23.25,15.95,41.53Z"/>
</svg>